<?xml version="1.0" encoding="utf-8"?>
<!-- Generator: Adobe Illustrator 21.0.0, SVG Export Plug-In . SVG Version: 6.00 Build 0)  -->
<svg version="1.1" id="logo_1_" xmlns="http://www.w3.org/2000/svg" xmlns:xlink="http://www.w3.org/1999/xlink" x="0px" y="0px"
	 viewBox="200 100 200 200" style="enable-background:new 0 0 600 400;" xml:space="preserve">
<style type="text/css">
	.st0{fill:url(#head_1_);}
	.st1{fill:url(#SVGID_1_);}
	.st2{fill:url(#SVGID_2_);}
	.st3{fill:url(#SVGID_3_);}
	.st4{fill:url(#small_cloud_1_);}
	.st5{fill:#637170;}
	.st6{fill:#469DD7;}
	.st7{fill:#F2F2F2;}
</style>
<g>
	<g id="clouds_and_octopus">
		<linearGradient id="head_1_" gradientUnits="userSpaceOnUse" x1="318.6917" y1="96.4193" x2="319.2119" y2="204.6128">
			<stop  offset="0" style="stop-color:#47C8F3"/>
			<stop  offset="0.1034" style="stop-color:#58CBF5"/>
			<stop  offset="0.2839" style="stop-color:#79D0E7"/>
			<stop  offset="0.5049" style="stop-color:#7ED1E5"/>
			<stop  offset="0.87" style="stop-color:#469DD7"/>
		</linearGradient>
		<path id="head" class="st0" d="M299.1,215.1c17.3-22.9,2-33.2-0.2-38c2.4-1.1,4.7-3,6.7-5.4c5.1-6.3,5.8-14.1,1.6-17.5
			c-4.2-3.4-11.8-1.1-16.8,5.2c-0.3,0.3-0.5,0.7-0.8,1c-2.9-5.8-5-12.5-4.6-21.1c0.5-9.6,4.2-18.7,10.2-25.3
			c6-6.7,14.2-10.9,23.6-10.9c18.9,0,33.3,17.1,34.2,36.3c0.4,8.8-1.8,15.5-4.8,21.4c-0.3-0.5-0.7-0.9-1-1.4
			c-5.1-6.3-12.6-8.6-16.8-5.2c-4.2,3.4-3.5,11.3,1.6,17.5c2.1,2.5,4.5,4.4,7,5.6c-14.8,10.8-4.7,33.3,1.9,35.8L299.1,215.1z"/>
		<g id="big_cloud">
			<linearGradient id="SVGID_1_" gradientUnits="userSpaceOnUse" x1="229.0747" y1="218.2182" x2="272.7639" y2="218.2182">
				<stop  offset="0.1973" style="stop-color:#AADFEE"/>
				<stop  offset="0.3815" style="stop-color:#7ED1E5"/>
				<stop  offset="0.5626" style="stop-color:#79D0E7"/>
				<stop  offset="0.8257" style="stop-color:#59AEDB"/>
			</linearGradient>
			<circle class="st1" cx="250.9" cy="218.2" r="21.8"/>
			<linearGradient id="SVGID_2_" gradientUnits="userSpaceOnUse" x1="352.6716" y1="236.3373" x2="408.3288" y2="232.176">
				<stop  offset="0" style="stop-color:#47C8F3"/>
				<stop  offset="0.1034" style="stop-color:#58CBF5"/>
				<stop  offset="0.2839" style="stop-color:#79D0E7"/>
				<stop  offset="0.4844" style="stop-color:#7ED1E5"/>
				<stop  offset="0.7222" style="stop-color:#59AEDB"/>
				<stop  offset="0.8945" style="stop-color:#3775AF"/>
				<stop  offset="1" style="stop-color:#16468E"/>
			</linearGradient>
			<circle class="st2" cx="367.8" cy="235.2" r="21.8"/>
			<linearGradient id="SVGID_3_" gradientUnits="userSpaceOnUse" x1="206.4113" y1="238.4396" x2="437.4654" y2="239.8837">
				<stop  offset="5.654100e-02" style="stop-color:#79D0E7"/>
				<stop  offset="0.4063" style="stop-color:#7ED1E5"/>
				<stop  offset="0.7222" style="stop-color:#59AEDB"/>
				<stop  offset="1" style="stop-color:#3775AF"/>
			</linearGradient>
			<path class="st3" d="M400.1,261.6c0-15.9-12.9-28.8-28.8-28.8c-4.5,0-8.7,1-12.4,2.8c0.3-1.6,0.5-3.3,0.5-5
				c0-13.9-10.6-26.8-24.6-26.8c-6.2,0-12,4.5-16.4,8.2c-2.9-26-63.5-42.7-55.7,13c-6.2-4.9-16.6-8-25.1-8
				c-20.1,0-36.4,16.3-36.4,36.4c0,18.5,11,33.5,31.7,36.1l144,0.1C390.7,289.3,400.1,275.5,400.1,261.6z"/>
		</g>
		<linearGradient id="small_cloud_1_" gradientUnits="userSpaceOnUse" x1="235.8301" y1="246.613" x2="426.0886" y2="245.8909">
			<stop  offset="0.1973" style="stop-color:#AADFEE"/>
			<stop  offset="0.3815" style="stop-color:#7ED1E5"/>
			<stop  offset="0.5626" style="stop-color:#79D0E7"/>
			<stop  offset="0.8257" style="stop-color:#59AEDB"/>
		</linearGradient>
		<path id="small_cloud" class="st4" d="M366.4,262.2c0-11.7-9.5-21.2-21.2-21.2c-3.3,0-6.4,0.7-9.2,2.1c0.2-1.2,0.4-2.4,0.4-3.7
			c0-10.3-7.8-19.8-18.1-19.8c-4.6,0-8.8,3.3-12.1,6.1c-2.2-19.2-40.1-26.7-41.1,9.6c-4.6-3.6-12.2-5.9-18.5-5.9
			c-14.8,0-26.8,12-26.8,26.8c0,13.7,8.1,24.7,23.4,26.6l106.2,0.1C359.4,282.6,366.4,272.4,366.4,262.2z"/>
	</g>
	<g id="eyes">

			<ellipse transform="matrix(0.7777 -0.6286 0.6286 0.7777 -26.9409 247.3871)" class="st7" cx="336.4" cy="161.8" rx="2.9" ry="4.3"/>

			<ellipse transform="matrix(0.6286 -0.7777 0.7777 0.6286 -14.0108 294.2435)" class="st7" cx="301.1" cy="161.8" rx="4.3" ry="2.9"/>
	</g>
	<g id="tentacles">
		<g>
			<path class="st6" d="M307.3,195.2c3.8,1.7-11-21.1-30.6-24.3c-9.2-1.5-25,1.6-32.7,33.4c-4.9,20.2-29.1,27-44.1,33
				c0,0,45,10.4,58.3-18.4C267.2,199.6,277.5,181.5,307.3,195.2z"/>

				<ellipse transform="matrix(0.9964 -8.473943e-02 8.473943e-02 0.9964 -14.5358 25.3215)" class="st7" cx="291" cy="183.9" rx="3.5" ry="3.5"/>

				<ellipse transform="matrix(0.9964 -8.474735e-02 8.474735e-02 0.9964 -14.6405 24.4299)" class="st7" cx="280.4" cy="184.7" rx="3.8" ry="3.8"/>

				<ellipse transform="matrix(0.9964 -8.474918e-02 8.474918e-02 0.9964 -15.0861 23.6188)" class="st7" cx="270.6" cy="189.5" rx="3.4" ry="3.4"/>

				<ellipse transform="matrix(0.9964 -8.475513e-02 8.475513e-02 0.9964 -15.7704 22.977)" class="st7" cx="262.7" cy="197.2" rx="3.6" ry="3.8"/>

				<ellipse transform="matrix(0.9964 -8.475918e-02 8.475918e-02 0.9964 -16.6326 22.5855)" class="st7" cx="257.7" cy="207.2" rx="3.2" ry="3.4"/>

				<ellipse transform="matrix(0.9964 -8.474819e-02 8.474819e-02 0.9964 -17.4321 22.256)" class="st7" cx="253.4" cy="216.5" rx="2.9" ry="3.1"/>

				<ellipse transform="matrix(0.9964 -8.475114e-02 8.475114e-02 0.9964 -18.1129 21.8659)" class="st7" cx="248.5" cy="224.3" rx="2.6" ry="2.7"/>

				<ellipse transform="matrix(0.9964 -8.473339e-02 8.473339e-02 0.9964 -18.648 21.2696)" class="st7" cx="241.2" cy="230.3" rx="2.6" ry="2.7"/>

				<ellipse transform="matrix(0.9964 -8.475644e-02 8.475644e-02 0.9964 -18.9663 20.6022)" class="st7" cx="233.2" cy="233.7" rx="2.2" ry="2.3"/>
		</g>
		<g>
			<path class="st6" d="M308.1,194.9c-2.5-2.8,20.6,3.1,28.6,19.1c3.8,7.5,7.4,23.6-17.9,38.7c-16.1,9.6-18,23.4-13.4,44.3
				c0,0-24.8-32.3-3.6-51.6C316,232.6,327.8,216.9,308.1,194.9z"/>

				<ellipse transform="matrix(0.9751 -0.2218 0.2218 0.9751 -37.8841 76.7059)" class="st7" cx="322.5" cy="207" rx="3.7" ry="3.7"/>

				<ellipse transform="matrix(0.9751 -0.2218 0.2218 0.9751 -39.9006 77.5553)" class="st7" cx="325.3" cy="216.4" rx="3.4" ry="3.4"/>

				<ellipse transform="matrix(0.9751 -0.2218 0.2218 0.9751 -41.958 77.3191)" class="st7" cx="323.2" cy="225.5" rx="3.1" ry="3.1"/>
			<ellipse transform="matrix(0.9751 -0.2218 0.2218 0.9751 -43.9542 76.733)" class="st7" cx="319.6" cy="234" rx="3.4" ry="3.2"/>
			<ellipse transform="matrix(0.9751 -0.2218 0.2218 0.9751 -45.645 75.5758)" class="st7" cx="313.6" cy="241" rx="3.1" ry="2.9"/>

				<ellipse transform="matrix(0.9751 -0.2218 0.2218 0.9751 -47.23 74.1801)" class="st7" cx="306.6" cy="247.3" rx="2.8" ry="2.6"/>

				<ellipse transform="matrix(0.9751 -0.2218 0.2218 0.9751 -48.6127 72.9556)" class="st7" cx="300.5" cy="252.9" rx="2.4" ry="2.3"/>
		</g>
		<g>
			<path class="st6" d="M333.7,204c-3.3-0.9,16.7-8.6,30.7-0.2c6.6,3.9,17.4,14.8,6.3,40.3c-7.1,16.3-4.4,22.5,2,34.6
				c0,0-24.3-4.6-18.3-31.3C358.5,229.6,359.3,210.9,333.7,204z"/>
			<path class="st7" d="M352.9,208.2c-1.2,1.4-3.3,1.5-4.7,0.2c-1.3-1.3-1.4-3.6-0.2-5c1.2-1.4,3.3-1.5,4.7-0.2
				C354,204.6,354.1,206.8,352.9,208.2z"/>
			<path class="st7" d="M359.4,214c-1.1,1.3-3.1,1.4-4.3,0.2c-1.2-1.2-1.3-3.3-0.2-4.6c1.1-1.3,3.1-1.4,4.3-0.2
				C360.5,210.7,360.6,212.7,359.4,214z"/>
			<path class="st7" d="M362.3,222.1c-1,1.2-2.8,1.3-3.9,0.1c-1.1-1.1-1.2-3-0.1-4.2c1-1.2,2.8-1.3,3.9-0.1
				C363.2,219,363.3,220.9,362.3,222.1z"/>
			<path class="st7" d="M364,231c-1.2,1.3-3,1.4-4.2,0.3c-1.2-1.2-1.2-3.2,0-4.5c1.2-1.3,3-1.4,4.2-0.3
				C365.2,227.6,365.2,229.6,364,231z"/>
			<path class="st7" d="M362.9,239.5c-1,1.2-2.7,1.3-3.8,0.3c-1.1-1.1-1.1-2.9,0-4.1c1-1.2,2.7-1.3,3.8-0.3
				C363.9,236.5,363.9,238.3,362.9,239.5z"/>
			<path class="st7" d="M360.7,248.1c-0.9,1.1-2.5,1.2-3.4,0.2c-0.9-0.9-1-2.6,0-3.6c0.9-1.1,2.5-1.2,3.4-0.2
				C361.6,245.4,361.6,247,360.7,248.1z"/>
			<path class="st7" d="M358.7,255.6c-0.8,0.9-2.2,1-3,0.2c-0.8-0.8-0.8-2.3,0-3.2c0.8-0.9,2.2-1,3-0.2
				C359.5,253.2,359.5,254.6,358.7,255.6z"/>
			<path class="st7" d="M359.4,262.6c-0.8,0.9-2.2,1-3,0.2c-0.8-0.8-0.8-2.3,0-3.2c0.8-0.9,2.2-1,3-0.2
				C360.2,260.3,360.2,261.7,359.4,262.6z"/>
			<path class="st7" d="M361.6,268.8c-0.7,0.8-1.9,0.9-2.6,0.2c-0.7-0.7-0.7-2,0-2.8c0.7-0.8,1.9-0.9,2.6-0.2
				C362.3,266.8,362.3,268,361.6,268.8z"/>
		</g>
	</g>
	<g id="head_x27_s_spots">
		<ellipse transform="matrix(0.3073 -0.9516 0.9516 0.3073 120.437 392.198)" class="st7" cx="329.6" cy="113.4" rx="4" ry="5.2"/>
		<ellipse transform="matrix(0.3374 -0.9414 0.9414 0.3374 108.7496 396.598)" class="st7" cx="336.1" cy="121" rx="2.6" ry="3.3"/>
	</g>
</g>
</svg>
